<svg id="Layer_1" data-name="Layer 1" xmlns="http://www.w3.org/2000/svg" viewBox="0 0 396.85 181.42"><defs><style>.cls-1{fill:#004683;}</style></defs><title>Logo_bred_mørkblå</title><path class="cls-1" d="M109,82.55a11.65,11.65,0,0,0-3.2-8.44h0a11.6,11.6,0,0,0-8.34-3.17,10.77,10.77,0,0,0-16.5,0,11.61,11.61,0,0,0-8.36,3.2h0a11.67,11.67,0,0,0-3.17,8.41,11.69,11.69,0,0,0-3.71,8.19h0a11.64,11.64,0,0,0,3.69,8.16,11.64,11.64,0,0,0,3.19,8.44h0a11.62,11.62,0,0,0,8.34,3.17,10.78,10.78,0,0,0,16.5,0,11.55,11.55,0,0,0,8.36-3.19h0A11.67,11.67,0,0,0,109,98.9a11.69,11.69,0,0,0,3.71-8.19h0A11.67,11.67,0,0,0,109,82.55Zm-19.8,22.1A13.93,13.93,0,0,1,75.28,91.22c0-.17,0-.34,0-.51s0-.34,0-.52a13.92,13.92,0,0,1,27.83,0c0,.18,0,.35,0,.52s0,.34,0,.51A13.94,13.94,0,0,1,89.19,104.65Zm14.58-20.19a32.09,32.09,0,0,0-1.29-5A20.16,20.16,0,0,1,107.79,83a17.87,17.87,0,0,1-.43,3.45,22.28,22.28,0,0,1-.8,2.74A32.15,32.15,0,0,0,103.77,84.46ZM105,75h0a10.09,10.09,0,0,1,2.8,6.46,23,23,0,0,0-5.86-3.48,23.16,23.16,0,0,0-3.36-5.78A10.16,10.16,0,0,1,105,75Zm-4.59,2.39A31.61,31.61,0,0,0,95.29,76a31.83,31.83,0,0,0-4.56-2.69A19.83,19.83,0,0,1,97,72.1,20.34,20.34,0,0,1,100.36,77.34ZM89.19,68.27A10,10,0,0,1,95.84,71a22.81,22.81,0,0,0-6.62,1.66,24.85,24.85,0,0,0-4-1.28,19,19,0,0,0-2.61-.4A10,10,0,0,1,89.19,68.27ZM81.42,72.1a18.61,18.61,0,0,1,3.51.44,21.78,21.78,0,0,1,2.74.8A31.53,31.53,0,0,0,83.11,76,30.58,30.58,0,0,0,78,77.34,20.34,20.34,0,0,1,81.42,72.1Zm-8,2.85h0a10.11,10.11,0,0,1,6.42-2.8,23.29,23.29,0,0,0-3.36,5.78,23.12,23.12,0,0,0-5.86,3.48A10.14,10.14,0,0,1,73.43,75Zm2.47,4.51a33.11,33.11,0,0,0-1.28,5,31.55,31.55,0,0,0-2.81,4.72A20,20,0,0,1,70.59,83,20.16,20.16,0,0,1,75.9,79.46ZM69.47,97.23a10.1,10.1,0,0,1-2.57-6.52h0a10.14,10.14,0,0,1,2.59-6.55,23.07,23.07,0,0,0,1.65,6.52,24.85,24.85,0,0,0-1.28,4A21,21,0,0,0,69.47,97.23ZM71,95a21.72,21.72,0,0,1,.79-2.74A31.37,31.37,0,0,0,74.62,97a31.67,31.67,0,0,0,1.28,5,19.89,19.89,0,0,1-5.31-3.53A17.92,17.92,0,0,1,71,95Zm2.4,11.5h0a10.14,10.14,0,0,1-2.8-6.46,23,23,0,0,0,5.86,3.48,23.4,23.4,0,0,0,3.36,5.77A10.1,10.1,0,0,1,73.43,106.47ZM78,104.08a31.61,31.61,0,0,0,5.07,1.31,31.53,31.53,0,0,0,4.56,2.7,19.8,19.8,0,0,1-6.23,1.22A20.11,20.11,0,0,1,78,104.08Zm11.17,9.06a10,10,0,0,1-6.65-2.73,22.52,22.52,0,0,0,6.63-1.65,25.05,25.05,0,0,0,4,1.28,20.81,20.81,0,0,0,2.62.4A10.08,10.08,0,0,1,89.19,113.14ZM97,109.31a17.83,17.83,0,0,1-3.51-.44,21.72,21.72,0,0,1-2.74-.79,31.62,31.62,0,0,0,4.57-2.68,32.54,32.54,0,0,0,5.08-1.32A20.11,20.11,0,0,1,97,109.31Zm8-2.84h0a10.11,10.11,0,0,1-6.42,2.8,23.47,23.47,0,0,0,3.36-5.78,23,23,0,0,0,5.86-3.48A10.14,10.14,0,0,1,105,106.47ZM102.48,102a30.49,30.49,0,0,0,1.28-5,31.55,31.55,0,0,0,2.81-4.72,20,20,0,0,1,1.23,6.16A19.9,19.9,0,0,1,102.48,102Zm9-11.24a10.14,10.14,0,0,1-2.59,6.55,22.65,22.65,0,0,0-1.65-6.52,25.48,25.48,0,0,0,1.28-4,19.41,19.41,0,0,0,.39-2.51,10.1,10.1,0,0,1,2.57,6.52Z"/><path class="cls-1" d="M146.74,89.53l-2.29,12.25H140L142.2,90a6.44,6.44,0,0,0,.1-1.19c0-1.61-.85-2.42-2.56-2.42a3.87,3.87,0,0,0-2,.63,5,5,0,0,0-1.59,1.36l-2.5,13.42h-4.47l2.48-13.18a1.87,1.87,0,0,0,0-.42c0-1.21-.93-1.81-2.78-1.81a3.74,3.74,0,0,0-1.89.62,5.67,5.67,0,0,0-1.68,1.42l-2.5,13.37h-4.45L121,88.27a8.56,8.56,0,0,0,.09-1.47,11.87,11.87,0,0,0-.49-3.36l4.27-.75c.16.59.28,1.15.39,1.69a8.29,8.29,0,0,1,5.27-1.64c2.46,0,4.21.67,5.23,2a8,8,0,0,1,5.59-2q5.59,0,5.6,5.09A10.06,10.06,0,0,1,146.74,89.53Z"/><path class="cls-1" d="M148.86,94.78A12.41,12.41,0,0,1,152,86.23a10,10,0,0,1,7.82-3.49,7.74,7.74,0,0,1,5.57,1.87,7.05,7.05,0,0,1,1.95,5.33,12.78,12.78,0,0,1-3,8.68,10,10,0,0,1-7.89,3.51,7.63,7.63,0,0,1-5.51-1.9A7.19,7.19,0,0,1,148.86,94.78Zm4.54-.21c0,2.66,1.15,4,3.44,4A4.89,4.89,0,0,0,161.15,96a11,11,0,0,0,1.59-6c0-2.52-1.15-3.77-3.44-3.77A4.9,4.9,0,0,0,155,88.78,10.38,10.38,0,0,0,153.4,94.57Z"/><path class="cls-1" d="M184.5,101.78H180l2-10.89a12.83,12.83,0,0,0,.25-2.2c0-1.55-.92-2.32-2.74-2.32a5.65,5.65,0,0,0-4.21,2l-2.5,13.44h-4.38l2.64-14a5.33,5.33,0,0,0,.07-1,11.92,11.92,0,0,0-.51-3.31l4.28-.79.4,2.09a8.52,8.52,0,0,1,5.78-2c3.84,0,5.75,1.79,5.75,5.39a12.81,12.81,0,0,1-.24,2.27Z"/><path class="cls-1" d="M194,93.66c0,.3,0,.57,0,.79a3.85,3.85,0,0,0,1.16,3,4.62,4.62,0,0,0,3.22,1,6.71,6.71,0,0,0,2.53-.61,7.87,7.87,0,0,0,2.25-1.35l-.5,4.59a13.26,13.26,0,0,1-5.41,1,7.5,7.5,0,0,1-5.61-2.19,8.15,8.15,0,0,1-2.14-6,11.08,11.08,0,0,1,3.09-8,10.76,10.76,0,0,1,8.11-3.2A8.26,8.26,0,0,1,205.49,84a4.05,4.05,0,0,1,1.83,3.56,5.64,5.64,0,0,1-2.73,5,12,12,0,0,1-6.72,1.8A11.67,11.67,0,0,1,194,93.66Zm.84-3.3a8.81,8.81,0,0,0,2.46.34,10,10,0,0,0,4-.73A2.29,2.29,0,0,0,203,87.89c0-1-1.11-1.52-3.32-1.52A4.21,4.21,0,0,0,197,87.51,7.8,7.8,0,0,0,194.88,90.36Z"/><path class="cls-1" d="M219.34,102q-2.59,5.43-10.09,5.47v-4.21c3.3,0,5.41-1.08,6.34-3.19l.16-.49c-1.59-.45-2.67-2.13-3.23-5l-2.21-11.5h4.59q2,12.28,2.6,12.82l6-12.82h4.94Z"/><path class="cls-1" d="M229.51,100.57l1.73-3.14a6.5,6.5,0,0,0,1.95,1.25,5.55,5.55,0,0,0,2.18.57,3.9,3.9,0,0,0,2.57-.84,2.81,2.81,0,0,0,1-2.27,1.89,1.89,0,0,0-.53-1.31,8.35,8.35,0,0,0-1.84-1.33l-2.46-1.36a4.32,4.32,0,0,1-1.7-1.63,4.14,4.14,0,0,1-.57-2.1,5,5,0,0,1,2-4.18,7.87,7.87,0,0,1,5-1.58,12.48,12.48,0,0,1,4.92,1.29L242.28,87a5.38,5.38,0,0,0-3.68-1.57,3.89,3.89,0,0,0-2.26.67,2.09,2.09,0,0,0-1,1.78,1.93,1.93,0,0,0,.54,1.37,7.61,7.61,0,0,0,1.87,1.3l2.44,1.32a4.26,4.26,0,0,1,1.7,1.57,4.12,4.12,0,0,1,.55,2.1,5.74,5.74,0,0,1-2.17,4.74A8.51,8.51,0,0,1,234.8,102,9.73,9.73,0,0,1,229.51,100.57Z"/><path class="cls-1" d="M262,102h-.87l-3.47-12.17L250.19,102h-.87L245.83,83h3.37l2,11.88,7-11.88h.87l3.35,12,5.87-12h3.43Q265.89,94.4,262,102Z"/><path class="cls-1" d="M282.14,100.75,281,107.5h-3.32L281,88.58a14.87,14.87,0,0,0,.24-2.63,12.14,12.14,0,0,0-.26-2.58l3.33-.63a19.85,19.85,0,0,1,.32,2.39,6.24,6.24,0,0,1,2.35-1.7,6.47,6.47,0,0,1,9.83,6.24,13.54,13.54,0,0,1-2.94,8.88,9.53,9.53,0,0,1-7.72,3.58,8.31,8.31,0,0,1-2.37-.41A2.77,2.77,0,0,1,282.14,100.75Zm.48-2.74a2.47,2.47,0,0,0,1.28.94,4.77,4.77,0,0,0,1.8.38,6.77,6.77,0,0,0,5.62-2.47,10.47,10.47,0,0,0,2-6.74,4.61,4.61,0,0,0-1.16-3.45,4.77,4.77,0,0,0-3.48-1.14,5.18,5.18,0,0,0-2.34.71,5.49,5.49,0,0,0-1.9,1.47Z"/><path class="cls-1" d="M303,92.86a9.08,9.08,0,0,0-.15,1.6A4.7,4.7,0,0,0,304.09,98a5,5,0,0,0,3.61,1.24,7.07,7.07,0,0,0,4.15-1.52l-.34,3.38a16,16,0,0,1-4.94.93q-7.23,0-7.23-8.1a11.33,11.33,0,0,1,3-8A10,10,0,0,1,310,82.65a7.45,7.45,0,0,1,4.43,1.19,3.9,3.9,0,0,1,1.66,3.38A5.54,5.54,0,0,1,313.53,92a11,11,0,0,1-6.33,1.76A8.78,8.78,0,0,1,303,92.86Zm.58-2.41a7.52,7.52,0,0,0,3.12.59,9.73,9.73,0,0,0,4.45-.88,2.75,2.75,0,0,0,1.73-2.57c0-1.43-1-2.15-3-2.15Q305.34,85.44,303.53,90.45Z"/><path class="cls-1" d="M316.88,100.57l1.73-3.14a6.5,6.5,0,0,0,1.95,1.25,5.55,5.55,0,0,0,2.18.57,3.9,3.9,0,0,0,2.57-.84,2.81,2.81,0,0,0,1-2.27,1.89,1.89,0,0,0-.53-1.31A8.35,8.35,0,0,0,324,93.5l-2.46-1.36a4.32,4.32,0,0,1-1.7-1.63,4.14,4.14,0,0,1-.57-2.1,5,5,0,0,1,2-4.18,7.87,7.87,0,0,1,5-1.58,12.48,12.48,0,0,1,4.92,1.29L329.65,87A5.38,5.38,0,0,0,326,85.44a3.89,3.89,0,0,0-2.26.67,2.09,2.09,0,0,0-.95,1.78,1.93,1.93,0,0,0,.54,1.37,7.61,7.61,0,0,0,1.87,1.3l2.44,1.32a4.26,4.26,0,0,1,1.7,1.57,4.12,4.12,0,0,1,.55,2.1,5.74,5.74,0,0,1-2.17,4.74,8.51,8.51,0,0,1-5.52,1.75A9.73,9.73,0,0,1,316.88,100.57Z"/><polygon class="cls-1" points="271.21 101.66 274.04 85.77 274.54 83.03 277.88 83.03 274.58 101.66 271.21 101.66"/></svg>