<svg id="Layer_1" data-name="Layer 1" xmlns="http://www.w3.org/2000/svg" viewBox="0 0 66.69 66.69"><defs><style>.cls-1{fill:#fff;}.cls-2{fill:#004683;}</style></defs><title>App ikon 6</title><rect class="cls-1" width="66.69" height="66.69" rx="16" ry="16"/><path class="cls-2" d="M53.14,25.18A11.62,11.62,0,0,0,50,16.75h0a11.62,11.62,0,0,0-8.34-3.17,11.58,11.58,0,0,0-8.26-3.86,11.56,11.56,0,0,0-8.24,3.83,11.6,11.6,0,0,0-8.36,3.2h0a11.59,11.59,0,0,0-3.17,8.41,11.61,11.61,0,0,0-3.71,8.19h0a11.63,11.63,0,0,0,3.68,8.16A11.65,11.65,0,0,0,16.75,50h0a11.58,11.58,0,0,0,8.34,3.17A11.57,11.57,0,0,0,33.35,57a11.56,11.56,0,0,0,8.23-3.83A11.63,11.63,0,0,0,50,50h0a11.67,11.67,0,0,0,3.17-8.41,11.69,11.69,0,0,0,3.71-8.19h0A11.64,11.64,0,0,0,53.14,25.18ZM33.35,47.29A13.94,13.94,0,0,1,19.43,33.86c0-.17,0-.34,0-.51s0-.34,0-.52a13.92,13.92,0,0,1,27.83,0c0,.18,0,.34,0,.52s0,.34,0,.51A13.93,13.93,0,0,1,33.35,47.29ZM47.92,27.1a33.24,33.24,0,0,0-1.28-5A20.16,20.16,0,0,1,52,25.64a17.72,17.72,0,0,1-.44,3.44,21.86,21.86,0,0,1-.79,2.75A31.37,31.37,0,0,0,47.92,27.1Zm1.19-9.51h0a10.14,10.14,0,0,1,2.8,6.46,23,23,0,0,0-5.86-3.48,23.29,23.29,0,0,0-3.36-5.78A10.19,10.19,0,0,1,49.11,17.59ZM44.52,20a31.46,31.46,0,0,0-5.08-1.31A30.93,30.93,0,0,0,34.88,16a19.94,19.94,0,0,1,6.24-1.23A20.45,20.45,0,0,1,44.52,20ZM33.35,10.91A10,10,0,0,1,40,13.64a23.1,23.1,0,0,0-6.62,1.65,24,24,0,0,0-4-1.27,19.48,19.48,0,0,0-2.61-.4A10,10,0,0,1,33.35,10.91Zm-7.78,3.83a18.51,18.51,0,0,1,3.51.44,23.68,23.68,0,0,1,2.75.79,32.65,32.65,0,0,0-4.57,2.69A32.13,32.13,0,0,0,22.17,20,21,21,0,0,1,25.57,14.74Zm-8,2.85h0A10.06,10.06,0,0,1,24,14.79a23.31,23.31,0,0,0-3.37,5.78,22.77,22.77,0,0,0-5.85,3.48A10.09,10.09,0,0,1,17.59,17.59Zm2.47,4.51a32,32,0,0,0-1.29,5A31.82,31.82,0,0,0,16,31.81a19.76,19.76,0,0,1-1.23-6.17A20.39,20.39,0,0,1,20.06,22.1ZM13.63,39.87a10.1,10.1,0,0,1-2.57-6.52h0a10.12,10.12,0,0,1,2.59-6.55,23,23,0,0,0,1.64,6.52,24,24,0,0,0-1.27,4A19.29,19.29,0,0,0,13.63,39.87Zm1.55-2.26A23.53,23.53,0,0,1,16,34.87a31.63,31.63,0,0,0,2.8,4.72,31.8,31.8,0,0,0,1.29,5,19.9,19.9,0,0,1-5.32-3.54A18.74,18.74,0,0,1,15.18,37.61Zm2.41,11.5h0a10.06,10.06,0,0,1-2.8-6.46,23.05,23.05,0,0,0,5.85,3.48A23.12,23.12,0,0,0,24,51.9,10.08,10.08,0,0,1,17.59,49.11Zm4.58-2.39A31.73,31.73,0,0,0,27.25,48a31.91,31.91,0,0,0,4.56,2.7A19.86,19.86,0,0,1,25.57,52,20.63,20.63,0,0,1,22.17,46.72Zm11.18,9.06a10,10,0,0,1-6.65-2.73,22.78,22.78,0,0,0,6.62-1.65,25.05,25.05,0,0,0,4,1.28,23.15,23.15,0,0,0,2.62.4A10.05,10.05,0,0,1,33.35,55.78ZM41.12,52a17.73,17.73,0,0,1-3.51-.44,22.35,22.35,0,0,1-2.75-.79A31.18,31.18,0,0,0,39.43,48a31.58,31.58,0,0,0,5.09-1.31A20.11,20.11,0,0,1,41.12,52Zm8-2.84h0a10.05,10.05,0,0,1-6.43,2.79,23.12,23.12,0,0,0,3.37-5.77,23.3,23.3,0,0,0,5.86-3.48A10.14,10.14,0,0,1,49.11,49.11Zm-2.47-4.52a32.67,32.67,0,0,0,1.28-5,31.64,31.64,0,0,0,2.81-4.73A20,20,0,0,1,52,41.05,19.68,19.68,0,0,1,46.64,44.59Zm9-11.24A10.1,10.1,0,0,1,53,39.89a22.64,22.64,0,0,0-1.64-6.51,25.48,25.48,0,0,0,1.28-4,21.3,21.3,0,0,0,.39-2.51,10.12,10.12,0,0,1,2.56,6.52Z"/></svg>