<svg id="Layer_1" data-name="Layer 1" xmlns="http://www.w3.org/2000/svg" viewBox="0 0 413.84 236.32"><defs><style>.cls-1{fill:#004683;}</style></defs><title>Logo_bred_payoff_mørkblå</title><path class="cls-1" d="M130.5,100.1a11.64,11.64,0,0,0-3.19-8.44h0A11.65,11.65,0,0,0,119,88.5a10.77,10.77,0,0,0-16.5,0,11.63,11.63,0,0,0-8.36,3.19h0a11.66,11.66,0,0,0-3.16,8.42,11.61,11.61,0,0,0-3.71,8.19h0a11.63,11.63,0,0,0,3.68,8.16,11.65,11.65,0,0,0,3.2,8.44h0a11.62,11.62,0,0,0,8.35,3.16,10.76,10.76,0,0,0,16.49,0,11.63,11.63,0,0,0,8.37-3.19h0a11.69,11.69,0,0,0,3.17-8.42,11.64,11.64,0,0,0,3.7-8.18h0A11.64,11.64,0,0,0,130.5,100.1Zm-19.79,22.11a13.94,13.94,0,0,1-13.92-13.43c0-.17,0-.34,0-.51s0-.35,0-.52a13.92,13.92,0,0,1,27.83,0c0,.17,0,.34,0,.52s0,.34,0,.51A13.93,13.93,0,0,1,110.71,122.21ZM125.28,102A32.93,32.93,0,0,0,124,97a20.16,20.16,0,0,1,5.31,3.54,17.82,17.82,0,0,1-.44,3.44,22.35,22.35,0,0,1-.79,2.75A31.71,31.71,0,0,0,125.28,102Zm1.19-9.51h0a10.12,10.12,0,0,1,2.8,6.46,22.72,22.72,0,0,0-5.86-3.48,23.29,23.29,0,0,0-3.36-5.78A10.08,10.08,0,0,1,126.47,92.51Zm-4.59,2.38a31.46,31.46,0,0,0-5.08-1.31,31.91,31.91,0,0,0-4.56-2.7,19.92,19.92,0,0,1,6.24-1.22A20.28,20.28,0,0,1,121.88,94.89Zm-11.17-9.06a10,10,0,0,1,6.64,2.73,23.1,23.1,0,0,0-6.62,1.65,24,24,0,0,0-4-1.27,21.31,21.31,0,0,0-2.61-.41A10,10,0,0,1,110.71,85.83Zm-7.78,3.83a18.51,18.51,0,0,1,3.51.44,23.68,23.68,0,0,1,2.75.79,32.65,32.65,0,0,0-4.57,2.69,31.86,31.86,0,0,0-5.09,1.31A20.81,20.81,0,0,1,102.93,89.66Zm-8,2.85h0a10.06,10.06,0,0,1,6.42-2.8A23,23,0,0,0,98,95.49,22.49,22.49,0,0,0,92.15,99,10.09,10.09,0,0,1,95,92.51ZM97.42,97a32,32,0,0,0-1.29,5,31.82,31.82,0,0,0-2.8,4.72,19.76,19.76,0,0,1-1.23-6.17A20.22,20.22,0,0,1,97.42,97ZM91,114.79a10.1,10.1,0,0,1-2.57-6.52h0A10.1,10.1,0,0,1,91,101.72a23,23,0,0,0,1.64,6.52,24,24,0,0,0-1.27,4A19.29,19.29,0,0,0,91,114.79Zm1.55-2.26a23.53,23.53,0,0,1,.79-2.74,32.14,32.14,0,0,0,2.8,4.72,31.8,31.8,0,0,0,1.29,5A20.14,20.14,0,0,1,92.1,116,18.74,18.74,0,0,1,92.54,112.53ZM95,124h0a10.07,10.07,0,0,1-2.8-6.47A22.79,22.79,0,0,0,98,121.05a23.12,23.12,0,0,0,3.37,5.77A10.08,10.08,0,0,1,95,124Zm4.58-2.39a31.73,31.73,0,0,0,5.08,1.31,31.91,31.91,0,0,0,4.56,2.7,19.86,19.86,0,0,1-6.24,1.22A20.63,20.63,0,0,1,99.53,121.64Zm11.18,9.06a10,10,0,0,1-6.65-2.73,22.78,22.78,0,0,0,6.62-1.65,24,24,0,0,0,4,1.27,19.37,19.37,0,0,0,2.62.4A10,10,0,0,1,110.71,130.7Zm7.77-3.83a17.73,17.73,0,0,1-3.51-.44,24.26,24.26,0,0,1-2.75-.79,31.71,31.71,0,0,0,4.57-2.69,31.58,31.58,0,0,0,5.09-1.31A20.11,20.11,0,0,1,118.48,126.87Zm8-2.84h0a10.11,10.11,0,0,1-6.43,2.79,23.12,23.12,0,0,0,3.37-5.77,23,23,0,0,0,5.86-3.49A10.19,10.19,0,0,1,126.47,124ZM124,119.51a32.8,32.8,0,0,0,1.28-5,31.05,31.05,0,0,0,2.81-4.72,20,20,0,0,1,1.22,6.17A19.92,19.92,0,0,1,124,119.51Zm9-11.24a10.1,10.1,0,0,1-2.59,6.54,22.78,22.78,0,0,0-1.64-6.52,25.05,25.05,0,0,0,1.28-4,21.3,21.3,0,0,0,.39-2.51,10.12,10.12,0,0,1,2.56,6.52Z"/><path class="cls-1" d="M168.25,107.08,166,119.33H161.5l2.21-11.79a6.5,6.5,0,0,0,.11-1.19c0-1.62-.86-2.43-2.57-2.43a3.93,3.93,0,0,0-2,.63,5.24,5.24,0,0,0-1.59,1.36l-2.49,13.42h-4.47l2.48-13.17a2.77,2.77,0,0,0,0-.42c0-1.21-.92-1.82-2.77-1.82a3.91,3.91,0,0,0-1.9.62,6,6,0,0,0-1.68,1.43l-2.49,13.36H140l2.53-13.5a10.26,10.26,0,0,0,.08-1.47,11.64,11.64,0,0,0-.49-3.37l4.28-.75c.15.6.28,1.16.38,1.69a8.37,8.37,0,0,1,5.27-1.64q3.7,0,5.24,2a8,8,0,0,1,5.58-2q5.61,0,5.61,5.1A9.11,9.11,0,0,1,168.25,107.08Z"/><path class="cls-1" d="M170.38,112.34a12.46,12.46,0,0,1,3.09-8.56,10,10,0,0,1,7.82-3.49,7.71,7.71,0,0,1,5.56,1.88,7,7,0,0,1,2,5.33,12.69,12.69,0,0,1-3.06,8.67,10,10,0,0,1-7.88,3.51,7.65,7.65,0,0,1-5.52-1.89A7.22,7.22,0,0,1,170.38,112.34Zm4.54-.21q0,4,3.43,4a4.86,4.86,0,0,0,4.31-2.52,11,11,0,0,0,1.59-6q0-3.77-3.43-3.77a4.92,4.92,0,0,0-4.29,2.49A10.37,10.37,0,0,0,174.92,112.13Z"/><path class="cls-1" d="M206,119.33h-4.52l2-10.89a12.48,12.48,0,0,0,.24-2.19c0-1.55-.91-2.33-2.74-2.33a5.64,5.64,0,0,0-4.2,2l-2.5,13.43H190l2.63-14a5.33,5.33,0,0,0,.07-1,12,12,0,0,0-.5-3.32l4.27-.78.41,2.09a8.45,8.45,0,0,1,5.77-2q5.76,0,5.76,5.4a12.91,12.91,0,0,1-.24,2.27Z"/><path class="cls-1" d="M215.56,111.22c0,.3,0,.56,0,.78a3.83,3.83,0,0,0,1.17,3,4.65,4.65,0,0,0,3.22,1,6.71,6.71,0,0,0,2.53-.6,7.87,7.87,0,0,0,2.25-1.35l-.51,4.59a13.24,13.24,0,0,1-5.41,1,7.49,7.49,0,0,1-5.6-2.18,8.16,8.16,0,0,1-2.15-6,11,11,0,0,1,3.1-8,10.77,10.77,0,0,1,8.11-3.21,8.36,8.36,0,0,1,4.78,1.25,4.06,4.06,0,0,1,1.83,3.57,5.64,5.64,0,0,1-2.73,5,12,12,0,0,1-6.73,1.79A11.6,11.6,0,0,1,215.56,111.22Zm.84-3.3a8.71,8.71,0,0,0,2.46.33,10,10,0,0,0,4-.72,2.29,2.29,0,0,0,1.64-2.09c0-1-1.1-1.52-3.31-1.52a4.19,4.19,0,0,0-2.67,1.15A7.8,7.8,0,0,0,216.4,107.92Z"/><path class="cls-1" d="M240.86,119.59q-2.61,5.43-10.09,5.46v-4.2q4.93,0,6.33-3.2l.17-.48c-1.6-.45-2.67-2.13-3.23-5l-2.22-11.5h4.59q2,12.28,2.6,12.83l6-12.83H250Z"/><path class="cls-1" d="M251,118.13l1.72-3.14a6.7,6.7,0,0,0,2,1.25,5.65,5.65,0,0,0,2.18.56,4,4,0,0,0,2.57-.83,2.81,2.81,0,0,0,1-2.27,1.86,1.86,0,0,0-.54-1.31,7.6,7.6,0,0,0-1.84-1.33l-2.46-1.36a4.45,4.45,0,0,1-1.7-1.63,4.14,4.14,0,0,1-.57-2.1,5,5,0,0,1,2-4.18,7.8,7.8,0,0,1,5-1.58,12.48,12.48,0,0,1,4.92,1.29l-1.48,3.07a5.35,5.35,0,0,0-3.68-1.57,3.8,3.8,0,0,0-2.26.67,2.06,2.06,0,0,0-.95,1.77,1.93,1.93,0,0,0,.54,1.38,7.18,7.18,0,0,0,1.87,1.29l2.44,1.33a4.23,4.23,0,0,1,1.69,1.57,4.12,4.12,0,0,1,.56,2.09,5.76,5.76,0,0,1-2.17,4.75,8.57,8.57,0,0,1-5.53,1.75A9.72,9.72,0,0,1,251,118.13Z"/><path class="cls-1" d="M283.52,119.6h-.87l-3.48-12.17-7.46,12.17h-.88l-3.49-19.1h3.37l2,11.89,7-11.89h.87l3.35,12,5.86-12h3.44Q287.39,112,283.52,119.6Z"/><path class="cls-1" d="M303.65,118.3l-1.18,6.76h-3.32l3.38-18.92a14.09,14.09,0,0,0,.25-2.63,13,13,0,0,0-.26-2.59l3.33-.63a21.59,21.59,0,0,1,.31,2.4,6.3,6.3,0,0,1,2.36-1.71,7,7,0,0,1,2.86-.69,7.14,7.14,0,0,1,5.23,1.73,7,7,0,0,1,1.73,5.2,13.51,13.51,0,0,1-2.94,8.88,9.49,9.49,0,0,1-7.72,3.58,8.26,8.26,0,0,1-2.36-.4A2.8,2.8,0,0,1,303.65,118.3Zm.49-2.74a2.4,2.4,0,0,0,1.27,1,5,5,0,0,0,1.8.38,6.79,6.79,0,0,0,5.63-2.47,10.48,10.48,0,0,0,2-6.74,4.65,4.65,0,0,0-1.16-3.45,4.78,4.78,0,0,0-3.48-1.14,5.15,5.15,0,0,0-2.35.7,5.44,5.44,0,0,0-1.89,1.48Z"/><path class="cls-1" d="M324.47,110.42a9,9,0,0,0-.16,1.6,4.66,4.66,0,0,0,1.29,3.54,5,5,0,0,0,3.62,1.24,7,7,0,0,0,4.15-1.52l-.35,3.39a15.9,15.9,0,0,1-4.94.93q-7.21,0-7.22-8.1a11.36,11.36,0,0,1,3-8,10,10,0,0,1,7.65-3.26,7.47,7.47,0,0,1,4.43,1.18,3.91,3.91,0,0,1,1.66,3.39,5.54,5.54,0,0,1-2.58,4.82,11,11,0,0,1-6.34,1.76A8.86,8.86,0,0,1,324.47,110.42Zm.58-2.41a7.65,7.65,0,0,0,3.12.59,9.76,9.76,0,0,0,4.45-.88,2.79,2.79,0,0,0,1.73-2.57c0-1.44-1-2.15-3-2.15Q326.87,103,325.05,108Z"/><path class="cls-1" d="M338.4,118.13l1.72-3.14a6.7,6.7,0,0,0,2,1.25,5.65,5.65,0,0,0,2.18.56,3.92,3.92,0,0,0,2.56-.83,2.79,2.79,0,0,0,1-2.27,1.86,1.86,0,0,0-.54-1.31,7.6,7.6,0,0,0-1.84-1.33L343,109.7a4.45,4.45,0,0,1-1.7-1.63,4.14,4.14,0,0,1-.57-2.1,5,5,0,0,1,2-4.18,7.8,7.8,0,0,1,5-1.58,12.48,12.48,0,0,1,4.92,1.29l-1.48,3.07a5.35,5.35,0,0,0-3.68-1.57,3.8,3.8,0,0,0-2.26.67,2.06,2.06,0,0,0-1,1.77,1.93,1.93,0,0,0,.54,1.38,7.18,7.18,0,0,0,1.87,1.29l2.44,1.33a4.23,4.23,0,0,1,1.69,1.57,4.12,4.12,0,0,1,.56,2.09,5.76,5.76,0,0,1-2.17,4.75,8.57,8.57,0,0,1-5.53,1.75A9.69,9.69,0,0,1,338.4,118.13Z"/><polygon class="cls-1" points="292.73 119.22 295.55 103.32 296.06 100.58 299.39 100.58 296.09 119.22 292.73 119.22"/><path class="cls-1" d="M144.61,149.15l.35-.94a2.7,2.7,0,0,0,1.33.54c.62,0,.92-.26.92-.77s-.29-.69-.88-.95a7.13,7.13,0,0,1-.93-.48,2.08,2.08,0,0,1-.41-.37,1.42,1.42,0,0,1-.26-.44,1.35,1.35,0,0,1-.09-.5,1.27,1.27,0,0,1,.5-1.07,2.11,2.11,0,0,1,1.32-.39,4.21,4.21,0,0,1,1.54.39l-.28.92a1.88,1.88,0,0,0-1.19-.47,1,1,0,0,0-.6.16.52.52,0,0,0-.24.43.86.86,0,0,0,.61.81l.71.33a2.42,2.42,0,0,1,1,.68,1.48,1.48,0,0,1,.3.95,1.42,1.42,0,0,1-.53,1.18,2.23,2.23,0,0,1-1.46.43A3.32,3.32,0,0,1,144.61,149.15Z"/><path class="cls-1" d="M155.13,149.59h-.27l-1.64-3.81-1.63,3.81h-.27l-2-5.72h1.06l1.2,3.67,1.49-3.67h.26l1.54,3.67,1.29-3.67h1Z"/><path class="cls-1" d="M159,149.49v-4.77h-.77v-.84H160v5.61Zm.55-7.72a.61.61,0,0,1,.61.61.6.6,0,0,1-.18.44.58.58,0,0,1-.43.18.62.62,0,0,1-.44-.18.63.63,0,0,1,0-.88A.64.64,0,0,1,159.59,141.77Z"/><path class="cls-1" d="M163.25,149.18v2.5h-1v-7.8h1v.46a1.89,1.89,0,0,1,1.37-.56,2.37,2.37,0,0,1,1.85.74,3.72,3.72,0,0,1,0,4.26,2.37,2.37,0,0,1-1.94.81,2.43,2.43,0,0,1-.76-.13A1.06,1.06,0,0,1,163.25,149.18Zm0-4.09v3.27a.89.89,0,0,0,.4.26,1.43,1.43,0,0,0,.59.13c1.23,0,1.85-.69,1.85-2.09a2.3,2.3,0,0,0-.44-1.55,1.79,1.79,0,0,0-1.41-.49,1.36,1.36,0,0,0-.51.14A1.83,1.83,0,0,0,163.25,145.09Z"/><path class="cls-1" d="M173.58,146.78h-4a2,2,0,0,0,.54,1.51,1.65,1.65,0,0,0,1.22.46,2.08,2.08,0,0,0,1.42-.49l.42.71a1.74,1.74,0,0,1-.71.4,3.69,3.69,0,0,1-1.32.22,2.47,2.47,0,0,1-1.8-.72,2.78,2.78,0,0,1-.82-2.12,3,3,0,0,1,.84-2.22,2.45,2.45,0,0,1,1.79-.75,2.54,2.54,0,0,1,1.87.67,2.32,2.32,0,0,1,.66,1.72A2,2,0,0,1,173.58,146.78Zm-2.41-2.16a1.58,1.58,0,0,0-1.6,1.44h3.1a1.39,1.39,0,0,0-.37-1A1.46,1.46,0,0,0,171.17,144.62Z"/><path class="cls-1" d="M181.36,150.44a1.76,1.76,0,0,1-.81.89,2.84,2.84,0,0,1-1.39.35v-.89a1.86,1.86,0,0,0,1.07-.29.82.82,0,0,0,.44-.71,2.55,2.55,0,0,0-.16-.9l-.42-1.11-1.51-3.9h1l1.65,4.33,1.48-4.33h1Z"/><path class="cls-1" d="M184.78,146.67a3,3,0,0,1,.7-2.09,2.57,2.57,0,0,1,3.7,0,3.7,3.7,0,0,1,0,4.26,2.34,2.34,0,0,1-1.86.78,2.29,2.29,0,0,1-1.86-.79A3.18,3.18,0,0,1,184.78,146.67Zm1,0c0,1.41.5,2.11,1.49,2.11a1.24,1.24,0,0,0,1.09-.57,2.58,2.58,0,0,0,.4-1.54c0-1.39-.5-2.08-1.49-2.08a1.29,1.29,0,0,0-1.08.55A2.55,2.55,0,0,0,185.82,146.67Z"/><path class="cls-1" d="M192.48,143.88v3.58c0,.86.37,1.29,1.12,1.29a1.52,1.52,0,0,0,.9-.28,1.42,1.42,0,0,0,.54-.65v-3.94h1v5.61h-1v-.78a1.62,1.62,0,0,1-.67.61,2.11,2.11,0,0,1-1,.27,1.85,1.85,0,0,1-1.41-.53,2.15,2.15,0,0,1-.49-1.5v-3.68Z"/><path class="cls-1" d="M201.07,144.84a1.11,1.11,0,0,0-.65-.22,1.16,1.16,0,0,0-.92.48,1.79,1.79,0,0,0-.4,1.17v3.22h-1v-5.61h1v.9a1.73,1.73,0,0,1,1.62-1,4.89,4.89,0,0,1,.77.09Z"/><path class="cls-1" d="M213.19,149.49v-3.55c0-.88-.38-1.32-1.15-1.32a1.12,1.12,0,0,0-.67.22,1.18,1.18,0,0,0-.43.5v4.15h-1v-4a.79.79,0,0,0-.32-.66,1.35,1.35,0,0,0-.82-.23,1.12,1.12,0,0,0-.64.23,1.38,1.38,0,0,0-.47.5v4.14h-1v-5.61h.65l.33.65a1.74,1.74,0,0,1,1.44-.75,1.84,1.84,0,0,1,1.68.75,1.35,1.35,0,0,1,.62-.54,2.25,2.25,0,0,1,.94-.21,1.73,1.73,0,0,1,1.34.51,2.06,2.06,0,0,1,.48,1.45v3.75Z"/><path class="cls-1" d="M215.87,146.67a3,3,0,0,1,.7-2.09,2.33,2.33,0,0,1,1.84-.8,2.3,2.3,0,0,1,1.86.77,3.1,3.1,0,0,1,.67,2.12,3.18,3.18,0,0,1-.68,2.14,2.34,2.34,0,0,1-1.85.78,2.31,2.31,0,0,1-1.87-.79A3.18,3.18,0,0,1,215.87,146.67Zm1,0c0,1.41.49,2.11,1.49,2.11a1.27,1.27,0,0,0,1.09-.57,2.66,2.66,0,0,0,.39-1.54c0-1.39-.49-2.08-1.48-2.08a1.3,1.3,0,0,0-1.09.55A2.55,2.55,0,0,0,216.92,146.67Z"/><path class="cls-1" d="M226.07,149.49v-3.26a2.18,2.18,0,0,0-.27-1.26,1.08,1.08,0,0,0-.9-.35,1.42,1.42,0,0,0-.71.2,1.56,1.56,0,0,0-.57.5v4.17h-1v-5.61h.68l.31.73a1.72,1.72,0,0,1,1.6-.83c1.23,0,1.85.75,1.85,2.24v3.47Z"/><path class="cls-1" d="M233.84,146.78h-4a2,2,0,0,0,.54,1.51,1.65,1.65,0,0,0,1.22.46,2.08,2.08,0,0,0,1.42-.49l.42.71a1.77,1.77,0,0,1-.7.4,3.75,3.75,0,0,1-1.33.22,2.49,2.49,0,0,1-1.8-.72,2.82,2.82,0,0,1-.82-2.12,3,3,0,0,1,.85-2.22,2.43,2.43,0,0,1,1.78-.75,2.56,2.56,0,0,1,1.88.67,2.62,2.62,0,0,1,.58,2.33Zm-2.41-2.16a1.54,1.54,0,0,0-1.12.43,1.51,1.51,0,0,0-.48,1h3.1a1.4,1.4,0,0,0-.38-1A1.43,1.43,0,0,0,231.43,144.62Z"/><path class="cls-1" d="M237.74,150.44a1.76,1.76,0,0,1-.81.89,2.8,2.8,0,0,1-1.38.35v-.89a1.83,1.83,0,0,0,1.06-.29.83.83,0,0,0,.45-.71,2.8,2.8,0,0,0-.16-.9l-.42-1.11-1.52-3.9h1l1.65,4.33,1.48-4.33h1Z"/><path class="cls-1" d="M248.56,148.84a2.18,2.18,0,0,1-1.82.75,1.64,1.64,0,0,1-1.63-1.67,1.78,1.78,0,0,1,.74-1.44,3,3,0,0,1,1.91-.59,2.33,2.33,0,0,1,.71.14c0-.91-.41-1.36-1.22-1.36a1.94,1.94,0,0,0-1.43.5l-.42-.83a2.57,2.57,0,0,1,.78-.4,3.11,3.11,0,0,1,1-.16,2,2,0,0,1,2.32,2.32v2a1,1,0,0,0,.44,1v.49a1.82,1.82,0,0,1-.91-.17A1,1,0,0,1,248.56,148.84Zm-.09-2.11a3.59,3.59,0,0,0-.66-.1,1.89,1.89,0,0,0-1.23.39,1.14,1.14,0,0,0-.48.91c0,.58.35.88,1,.88a1.69,1.69,0,0,0,1.34-.72Z"/><path class="cls-1" d="M255.11,149.49v-3.26a2.18,2.18,0,0,0-.27-1.26,1.08,1.08,0,0,0-.9-.35,1.42,1.42,0,0,0-.71.2,1.56,1.56,0,0,0-.57.5v4.17h-1v-5.61h.68l.31.73a1.73,1.73,0,0,1,1.61-.83c1.22,0,1.84.75,1.84,2.24v3.47Z"/><path class="cls-1" d="M260.3,150.44a1.76,1.76,0,0,1-.81.89,2.84,2.84,0,0,1-1.39.35v-.89a1.86,1.86,0,0,0,1.07-.29.82.82,0,0,0,.44-.71,2.55,2.55,0,0,0-.16-.9l-.42-1.11-1.51-3.9h1l1.65,4.33,1.48-4.33h1Z"/><path class="cls-1" d="M269.26,149.59H269l-1.64-3.81-1.64,3.81h-.26l-2-5.72h1.06l1.2,3.67,1.49-3.67h.26l1.54,3.67,1.28-3.67h1Z"/><path class="cls-1" d="M276.15,149.49V146a1.45,1.45,0,0,0-.31-1,1.07,1.07,0,0,0-.87-.36,1.42,1.42,0,0,0-.72.21,1.69,1.69,0,0,0-.56.49v4.17h-1v-7.9h1v2.91a1.47,1.47,0,0,1,.64-.51,2.12,2.12,0,0,1,.91-.21,1.75,1.75,0,0,1,1.4.59,2.39,2.39,0,0,1,.5,1.6v3.52Z"/><path class="cls-1" d="M283.91,146.78h-4a2,2,0,0,0,.54,1.51,1.68,1.68,0,0,0,1.22.46,2.11,2.11,0,0,0,1.43-.49l.42.71a1.82,1.82,0,0,1-.71.4,3.75,3.75,0,0,1-1.33.22,2.47,2.47,0,0,1-1.79-.72,2.78,2.78,0,0,1-.82-2.12,3,3,0,0,1,.84-2.22,2.43,2.43,0,0,1,1.78-.75,2.54,2.54,0,0,1,1.88.67,2.52,2.52,0,0,1,.58,2.33Zm-2.41-2.16a1.56,1.56,0,0,0-1.6,1.44H283a1.4,1.4,0,0,0-.38-1A1.43,1.43,0,0,0,281.5,144.62Z"/><path class="cls-1" d="M288.72,144.84a1.15,1.15,0,0,0-.65-.22,1.17,1.17,0,0,0-.93.48,1.83,1.83,0,0,0-.39,1.17v3.22h-1v-5.61h1v.9a1.73,1.73,0,0,1,1.61-1,4.65,4.65,0,0,1,.77.09Z"/><path class="cls-1" d="M295.2,146.78h-4a2,2,0,0,0,.54,1.51,1.67,1.67,0,0,0,1.22.46,2.11,2.11,0,0,0,1.43-.49l.41.71a1.7,1.7,0,0,1-.7.4,3.75,3.75,0,0,1-1.33.22,2.47,2.47,0,0,1-1.79-.72,2.79,2.79,0,0,1-.83-2.12,3,3,0,0,1,.85-2.22,2.43,2.43,0,0,1,1.78-.75,2.56,2.56,0,0,1,1.88.67,2.52,2.52,0,0,1,.58,2.33Zm-2.41-2.16a1.54,1.54,0,0,0-1.12.43,1.56,1.56,0,0,0-.48,1h3.1a1.4,1.4,0,0,0-.38-1A1.43,1.43,0,0,0,292.79,144.62Z"/></svg>